<svg width="400" height="450" viewBox="0 0 400 450" fill="none" xmlns="http://www.w3.org/2000/svg">
<path d="M271.894 186.537L267.795 182.452L272.479 177.783L276.578 173.697L283.751 166.548C288.582 161.733 288.582 153.854 283.751 149.039L276.578 141.89L274.529 139.847L263.55 128.904C226.221 91.6985 165.325 91.6985 127.996 128.904C90.6679 166.11 90.6679 226.807 127.996 264.013L132.095 268.098L115.993 284.148C113.651 286.482 112.333 289.546 112.333 292.902C112.333 296.258 113.651 299.322 115.993 301.656L125.361 310.994L136.34 321.937C154.492 340.029 178.5 349.951 204.117 349.951C229.735 349.951 253.742 340.029 271.894 321.937C309.369 284.294 309.369 223.743 271.894 186.537ZM139.414 139.993C170.448 109.061 221.098 109.061 252.278 139.993L263.257 150.936L265.307 152.979C267.795 155.605 267.795 159.69 265.307 162.317L261.208 166.402C258.573 169.028 254.474 169.028 251.839 166.402L249.79 164.359L238.811 153.417C215.096 129.78 176.597 129.78 152.882 153.417C141.464 164.943 135.169 180.117 135.169 196.313C135.169 212.508 141.464 227.682 153.028 239.063L186.112 272.038L188.161 274.08C192.553 278.457 198.408 280.646 204.263 280.646C210.119 280.646 215.828 278.457 220.366 274.08L222.415 272.038L224.465 269.995C233.248 261.241 233.248 246.796 224.465 238.042L222.415 235.999L189.186 203.024C185.526 199.377 185.526 193.249 189.186 189.601C190.942 187.85 193.431 186.829 195.919 186.829C198.408 186.829 200.897 187.85 202.653 189.601L235.737 222.576C253.156 239.938 253.156 268.098 235.737 285.461C218.317 302.824 190.064 302.824 172.644 285.461L161.665 274.518L159.616 272.475L152.296 265.18L139.414 252.34C108.381 221.554 108.381 171.071 139.414 139.993ZM260.622 310.265C245.544 325.293 225.489 333.61 204.263 333.61C183.038 333.61 162.983 325.293 147.905 310.265L136.926 299.322L134.876 297.279C132.388 294.653 132.388 290.568 134.876 288.087L138.975 284.002C141.61 281.521 145.709 281.521 148.344 284.002L150.393 286.044L161.372 296.987C173.23 308.806 188.747 314.642 204.263 314.642C219.78 314.642 235.444 308.806 247.155 296.987C270.869 273.351 270.869 234.978 247.155 211.341L213.925 178.22L211.876 176.178C203.092 167.423 188.6 167.423 179.817 176.178L175.718 180.263C166.935 189.017 166.935 203.462 175.718 212.216L177.768 214.259L210.851 247.234C212.608 248.985 213.632 251.465 213.632 253.945C213.632 256.426 212.608 258.906 210.851 260.657C207.191 264.305 201.043 264.305 197.383 260.657L164.3 227.682C155.81 219.366 151.272 208.131 151.272 196.313C151.272 184.494 155.956 173.26 164.3 164.797C181.72 147.434 209.973 147.434 227.393 164.797L238.371 175.74L240.421 177.783L247.594 184.932L260.476 197.772C291.656 228.85 291.656 279.333 260.622 310.265Z" fill="white"/>
</svg>
